HIERARCHY
ROOT Hip
{
	OFFSET 0 0 0
	CHANNELS 6 Xposition Yposition Zposition Zrotation Yrotation Xrotation
	JOINT ShoulderCenter
	{
		OFFSET 0 0.4363 0
		CHANNELS 3 Zrotation Yrotation Xrotation
		JOINT Head
		{
			OFFSET 0 0.1849 0
			CHANNELS 3 Zrotation Yrotation Xrotation
			End Site
			{
				OFFSET 0.0 0.0891 0.0
			}
		}
		JOINT ShoulderLeft
		{
			OFFSET -0.14 0 0
			CHANNELS 3 Zrotation Yrotation Xrotation
			JOINT ElbowLeft
			{
				OFFSET -0.25 0 0
				CHANNELS 3 Zrotation Yrotation Xrotation
				JOINT WristLeft
				{
					OFFSET -0.23 0 0
					CHANNELS 3 Zrotation Yrotation Xrotation
					End Site
					{
						OFFSET -0.0832 0.0 0.0
					}
				}
			}
		}
		JOINT ShoulderRight
		{
			OFFSET 0.14 0 0
			CHANNELS 3 Zrotation Yrotation Xrotation
			JOINT ElbowRight
			{
				OFFSET 0.25 0 0
				CHANNELS 3 Zrotation Yrotation Xrotation
				JOINT WristRight
				{
					OFFSET 0.23 0 0
					CHANNELS 3 Zrotation Yrotation Xrotation
					End Site
					{
						OFFSET 0.0832 0.0 0.0
					}
				}
			}
		}
	}
	JOINT HipLeft
	{
		OFFSET -0.0952 0 0
		CHANNELS 3 Zrotation Yrotation Xrotation
		JOINT KneeLeft
		{
			OFFSET 0 -0.3732 0
			CHANNELS 3 Zrotation Yrotation Xrotation
			JOINT AnkleLeft
			{
				OFFSET 0 -0.346 0
				CHANNELS 3 Zrotation Yrotation Xrotation
				End Site
				{
					OFFSET 0.0 0.0 0.0891
				}
			}
		}
	}
	JOINT HipRight
	{
		OFFSET 0.0952 0 0
		CHANNELS 3 Zrotation Yrotation Xrotation
		JOINT KneeRight
		{
			OFFSET 0 -0.3732 0
			CHANNELS 3 Zrotation Yrotation Xrotation
			JOINT AnkleRight
			{
				OFFSET 0 -0.346 0
				CHANNELS 3 Zrotation Yrotation Xrotation
				End Site
				{
					OFFSET 0.0 0.0 0.0891
				}
			}
		}
	}
}
MOTION
Frames: 24
Frame Time: 0.033333
-5.54813e-005 -5.62082e-005 -0.00253543 12.3552 -36.5596 -11.1348 18.867 -20.7015 4.9002 0 0 0 43.8467 6.5156 89.4621 1.31035e-005 42.7343 6.22334e-006 0 0 0 -87.2052 -7.42618 48.0084 -1.47888e-006 -44.8997 -2.59963e-006 0 0 0 12.1461 -43.4065 -4.57897 -103.437 33.612 -138.38 0 0 0 -0.941009 -2.02307 -13.8436 12.5761 8.51887 -21.5643 4.22937e-007 1.12921e-006 4.78356e-007 
-6.0415e-005 -5.62082e-005 -0.00252659 11.5017 -35.218 -10.0623 19.8513 -22.1639 4.26945 0 0 0 43.6678 7.06637 91.0085 -6.69299e-006 42.0901 -5.09787e-006 0 0 0 -87.7175 -7.54472 48.7349 -1.33797e-006 -45.2789 -1.43696e-006 0 0 0 -167.683 37.8757 -175.109 -48.8557 -3.41201 48.9699 0 0 0 -1.01802 -1.98303 -14.4406 12.1949 8.16915 -21.8932 0 0 0 
-7.93629e-005 -5.39046e-005 -0.00248686 9.50783 -24.9528 -8.37144 25.7363 -34.5554 2.17262 0 0 0 40.3571 12.3576 89.3516 8.63788e-007 41.7946 4.13942e-006 0 0 0 -91.7039 -11.5652 47.5398 4.10612e-006 -46.9128 -7.00162e-006 0 0 0 -167.594 56.3801 -173.741 -43.2898 10.0414 43.4561 0 0 0 -4.44342 -3.97982 -13.3735 12.0797 8.61139 -27.7323 0 0 0 
-8.85388e-005 -5.39046e-005 -0.0024717 9.29715 -26.227 -8.12897 26.8383 -33.2062 2.11952 0 0 0 39.5062 12.1972 89.11 -1.4026e-005 41.609 -9.62588e-006 0 0 0 -92.4479 -12.5232 50.043 3.04287e-006 -46.4527 -5.5938e-006 0 0 0 -170.376 42.8981 -176.88 -35.4371 7.82758 53.5719 0 0 0 -3.71439 -4.1549 -12.4213 12.0728 10.2601 -28.5329 0 0 0 
-8.85388e-005 -5.77732e-005 -0.00243972 10.6635 -23.4671 -7.35203 27.697 -35.6712 -0.365615 0 0 0 38.798 13.3319 88.811 -1.37418e-005 41.1664 -1.11708e-005 0 0 0 -93.1987 -12.7433 51.7301 5.22835e-006 -49.5808 -4.96368e-006 0 0 0 -174.787 36.7256 -178.89 -24.0334 9.90032 60.8408 0 0 0 -7.02447 -5.55686 -11.8384 13.5263 8.82352 -29.7314 0 0 0 
-8.85388e-005 -6.29648e-005 -0.00241072 12.9616 -25.0061 -6.65528 25.5693 -32.6954 -0.590908 -6.56852e-007 -3.30689e-007 -4.96436e-007 39.2452 12.916 88.2282 -1.24303e-005 41.165 -1.27407e-005 0 0 0 -90.1346 -11.6518 56.8442 -4.80682e-007 -55.6884 -3.34725e-006 0 0 0 -176.669 31.8931 -177.834 -17.4251 10.7375 63.5589 0 0 0 -9.68175 -5.37174 -14.8783 15.8948 4.6369 -21.6265 0 0 0 
-5.95048e-005 -6.37796e-005 -0.00240888 16.9154 -31.4518 -4.63377 24.0049 -26.7475 0.969359 0 0 0 38.2362 16.0565 87.1451 -1.16073e-005 41.1422 -4.55294e-006 1.07635e-006 4.22006e-007 9.90144e-008 -87.2255 -12.187 58.0959 7.09712e-006 -64.1522 -1.50551e-005 0 0 0 -179.19 36.1214 -167.388 78.9238 36.8891 110.357 0 0 0 -10.3755 -16.5232 -26.2841 25.0183 0.0748245 -4.28378 0 0 0 
-5.95048e-005 -6.37796e-005 -0.00240719 17.1935 -31.0338 -0.924962 24.2743 -25.1447 -2.07306 0 0 0 39.2082 16.0112 86.4669 -5.25596e-006 41.1296 -2.81877e-006 1.07839e-006 4.22396e-007 9.56807e-008 -83.8393 -10.0918 59.3626 -2.26377e-005 -69.893 1.60958e-005 0 0 0 -117.54 74.2619 -109.164 120.046 7.10258 169.821 0 0 0 -8.54775 -19.4865 -30.2514 24.5202 -0.202617 -4.0164 0 0 0 
-5.95048e-005 -6.37796e-005 -0.00240602 17.3243 -30.8515 -0.244927 23.9534 -24.9448 -3.10837 0 0 0 39.7994 15.6599 86.7617 -2.31883e-006 41.1265 -6.63571e-006 0 0 0 -82.7745 -9.81304 61.2367 -1.77591e-005 -70.7501 1.24439e-005 0 0 0 -2.49291 -17.3233 -16.6224 27.4053 0.0469754 -35.5506 -4.74867e-007 -1.85513e-007 -5.4288e-007 -8.43681 -19.233 -31.2866 23.2229 -0.257083 -3.64152 0 0 0 
-6.77326e-005 -6.2243e-005 -0.00237436 19.7525 -33.3675 -1.31248 20.6085 -23.1463 0.724533 0 0 0 40.2688 17.7763 85.096 -1.19289e-005 41.0996 -5.84093e-006 1.08063e-006 4.22664e-007 9.19996e-008 -84.9334 -14.4748 63.9232 3.1748e-005 -64.9153 -2.85285e-005 0 0 0 -4.97317 -23.337 -14.5249 33.6367 4.0305 -34.4939 0 0 0 -13.0605 -16.7419 -29.0989 22.5189 -0.127011 -3.33144 0 0 0 
-7.2149e-005 -6.0958e-005 -0.00236884 19.9764 -30.0884 -1.37996 21.4444 -24.9924 -1.91855 0 0 0 39.7731 16.1669 85.1602 2.35878e-006 41.0968 -4.95997e-006 0 0 0 -86.2845 -14.9013 67.7883 3.88023e-006 -63.7675 1.60853e-006 0 0 0 162.157 -50.9758 -176.621 46.6596 -3.14214 45.5601 0 0 0 -14.763 -17.8963 -27.7683 21.9642 -0.479151 -4.50518 0 0 0 
-8.40397e-005 -6.0958e-005 -0.00235939 21.1207 -23.6658 -1.29939 22.0344 -29.7764 -4.88967 -5.40357e-007 -2.24826e-007 -4.49686e-007 39.2596 15.7032 84.1958 -1.8763e-006 41.0881 9.04108e-007 0 0 0 -87.8804 -17.5768 75.8273 -1.88851e-006 -55.5225 -3.99188e-006 0 0 0 -18.6344 -48.3913 3.79161 57.0155 -8.57605 -29.1198 5.63323e-007 -8.8292e-007 2.96876e-007 -18.5933 -18.0259 -25.2774 22.0971 -1.47654 -10.2198 0 0 0 
-8.82473e-005 -6.0958e-005 -0.00235669 21.6959 -25.6178 -1.25436 23.8307 -29.3027 -1.66572 0 0 0 36.4558 19.3321 81.9701 1.73241e-007 41.0858 2.02141e-006 1.083e-006 4.23807e-007 8.78267e-008 -89.0371 -21.8584 74.9138 -1.06324e-005 -54.5261 4.12355e-006 0 0 0 -19.2507 -58.6884 3.62564 57.0681 -4.31886 -19.1891 0 0 0 -17.8281 -18.0499 -25.9992 22.3747 -1.25275 -9.93133 0 0 0 
-0.000120782 -6.79865e-005 -0.00231723 22.1655 -16.0112 -5.28136 20.3095 -35.4199 -5.97913 0 0 0 38.871 12.4425 83.8652 -1.76299e-006 41.0713 -1.98211e-006 0 0 0 -87.4902 -14.1043 79.3158 -4.06905e-006 -54.0235 -8.33864e-007 0 0 0 -29.868 -28.2724 2.9997 43.7202 0.637226 -24.9341 -4.37988e-007 -1.17259e-007 7.14521e-007 -27.3443 -14.644 -12.9176 26.1718 -1.08307 -14.9671 0 0 0 
-0.000131956 -8.2472e-005 -0.00231723 22.0483 -14.5001 -5.22573 27.5681 -39.1362 -4.77106 0 0 0 32.7847 18.2953 80.4164 -3.18789e-006 41.0841 2.07984e-006 1.08518e-006 4.25453e-007 8.35653e-008 -91.6858 -18.9354 74.2997 -2.98143e-006 -49.7691 2.13814e-006 4.06892e-007 -1.53907e-007 -2.21323e-007 -27.2849 -23.5336 4.78408 40.9041 -0.537409 -31.0074 0 0 0 -26.57 -15.2479 -12.0229 27.007 -1.54949 -18.5193 0 0 0 
-0.000132772 -9.5735e-005 -0.00231723 27.0943 -13.7549 -5.40958 25.7771 -40.288 -5.42535 1.74767e-007 -1.6395e-007 -3.21094e-007 30.8279 20.6769 79.283 1.45397e-005 41.0975 7.62709e-006 0 0 0 -86.293 -13.3777 76.0284 6.61027e-006 -49.9119 -9.0152e-006 0 0 0 -36.9045 -40.8374 3.11768 50.1498 0.690097 -13.2413 0 0 0 -31.2331 -15.887 -12.8039 26.9292 -2.02776 -18.65 1.2449e-007 1.15556e-006 1.20466e-006 
-0.000132772 -0.000133185 -0.00239841 28.9078 -14.7477 4.47669 29.0559 -31.4355 -13.7227 0 0 0 30.2296 18.678 75.9511 4.78311e-006 41.1021 2.55387e-006 0 0 0 -82.5888 -11.4203 75.9227 7.57744e-007 -51.4052 1.70863e-006 0 0 0 110.321 -68.4091 -157.825 41.5329 -7.79024 48.3979 0 0 0 -25.8545 -18.0131 -34.1122 22.7298 -0.269602 -9.40877 0 0 0 
-0.000120782 -0.000162698 -0.00239841 34.3635 -15.4668 4.52025 26.3046 -27.0974 -13.2739 0 0 0 28.4316 11.5593 60.0216 4.61451e-006 39.9811 1.75649e-006 0 0 0 -83.1496 -13.5732 79.2425 5.84596e-006 -48.1393 -3.72428e-006 0 0 0 115.257 -46.6344 -172.617 26.8297 -2.70365 67.3537 0 0 0 -26.4324 -25.9171 -37.339 23.9545 -0.787824 -4.58702 -6.30144e-007 1.23528e-006 1.09535e-006 
-0.000119216 -0.000171102 -0.00239841 38.9068 -14.6924 4.80504 35.6698 -31.1021 -10.381 0 0 0 16.8924 13.8982 41.919 -5.0869e-006 43.7878 -4.74386e-006 0 0 0 -94.2836 -23.5382 78.7557 -7.19277e-006 -38.0656 4.15352e-006 -1.80874e-006 -2.43885e-007 -4.31303e-008 109.049 -44.8111 -173.48 26.4999 -2.77635 67.6006 0 0 0 -34.7908 -31.3388 -38.8277 29.1401 -0.40742 -2.88701 0 0 0 
-0.000119216 -0.000172682 -0.00238663 43.7258 -22.214 4.32622 31.1622 -26.4731 -2.28744 0 0 0 83.8451 15.6765 143.319 180 49.7848 -180 0 0 0 -92.9313 -27.9923 71.3783 -2.71338e-006 -31.7728 -2.57264e-007 -1.64807e-006 5.95751e-007 -2.75505e-007 96.9249 -47.5044 -161.271 26.8898 -5.58474 65.6705 0 0 0 -37.3596 -30.648 -42.7082 26.1124 -1.34092 -7.06404 0 0 0 
-0.000119216 -0.000182353 -0.00238644 43.099 -19.1192 4.15464 35.6061 -31.3566 -2.21785 0 0 0 85.0408 17.6763 147.224 -180 51.2511 -180 0 0 0 -98.3577 -34.1465 77.5333 -7.80724e-007 -23.56 -1.04958e-006 0 0 0 100.551 -45.3085 -164.504 27.3916 -2.75031 66.6302 0 0 0 -32.8667 -37.6907 -43.1297 26.6837 -1.31655 -4.11791 0 0 0 
-9.26693e-005 -0.000243116 -0.00238644 52.3147 -22.3681 5.46773 26.1038 -21.6132 -5.64413 0 0 0 104.048 -13.8857 -170.743 -180 48.2589 -180 0 0 0 -101.131 -33.737 84.0277 -5.00897 -19.8291 1.12416 6.68282e-007 -2.99503e-008 8.12607e-007 86.2631 -33.5862 -166.213 17.5414 -0.759009 75.12 0 0 0 -19.9614 -48.5468 -65.2211 28.9382 2.41948 7.26996 0 0 0 
-9.26693e-005 -0.000255769 -0.00238106 53.7718 -20.6833 4.94623 26.072 -24.0162 -6.16054 0 0 0 104.811 -15.5864 -164.967 -180 47.365 -180 0 0 0 -98.871 -32.5144 87.5947 -3.1934e-006 -23.3212 1.95438e-006 0 0 0 86.5111 -32.12 -169.757 15.8378 -0.0862344 76.6683 0 0 0 -19.5108 -51.2871 -66.2795 29.597 3.08322 8.48167 0 0 0 
-9.26693e-005 -0.000305715 -0.00238056 55.855 -18.5271 4.94422 26.2018 -27.4653 -5.01938 0 0 0 104.848 -14.13 -146.858 -180 49.9063 -180 -6.25659e-008 -2.52703e-007 -5.0958e-008 -102.271 -37.8208 88.1383 -2.28432 -19.2018 0.261846 0 0 0 109.374 -15.3964 158.196 -3.56906 -0.652934 94.5109 0 0 0 -2.71223 -56.9627 -82.5274 31.9186 6.7216 18.6753 0 0 0 
